{
	"asset":{
		"generator":"Khronos glTF Blender I/O v4.2.69",
		"version":"2.0"
	},
	"scene":0,
	"scenes":[
		{
			"name":"Scene",
			"nodes":[
				14
			]
		}
	],
	"nodes":[
		{
			"mesh":0,
			"name":"antennas",
			"rotation":[
				4.065877856618272e-09,
				0,
				0,
				1
			],
			"scale":[
				0.9162326455116272,
				0.7068973779678345,
				0.916232705116272
			],
			"translation":[
				0,
				-0.08777392655611038,
				-3.725290298461914e-09
			]
		},
		{
			"mesh":1,
			"name":"ears",
			"rotation":[
				5.062414931700232e-09,
				0,
				0,
				1
			],
			"scale":[
				0.9376261234283447,
				0.7358721494674683,
				1
			],
			"translation":[
				0,
				-0.08777392655611038,
				-3.725290298461914e-09
			]
		},
		{
			"mesh":2,
			"name":"eyes",
			"scale":[
				1,
				0.9499168395996094,
				1
			],
			"translation":[
				0,
				-0.12899871170520782,
				0.033878669142723083
			]
		},
		{
			"mesh":3,
			"name":"head",
			"rotation":[
				9.685283686167168e-09,
				0,
				0,
				1
			],
			"scale":[
				0.844336748123169,
				0.7358721494674683,
				0.8058394193649292
			],
			"translation":[
				0,
				-0.08777392655611038,
				-0.00854017585515976
			]
		},
		{
			"children":[
				0,
				1,
				2,
				3
			],
			"name":"Body.001",
			"translation":[
				0,
				0.5,
				0
			]
		},
		{
			"mesh":4,
			"name":"Cube.008",
			"rotation":[
				-1.2261563142601517e-07,
				-1.5562562794002588e-07,
				0.7071067690849304,
				0.7071067690849304
			],
			"scale":[
				0.9999999403953552,
				1,
				0.15084682404994965
			],
			"translation":[
				0.5750490427017212,
				-0.22773784399032593,
				2.0116567611694336e-07
			]
		},
		{
			"mesh":5,
			"name":"wing_right",
			"rotation":[
				-1.2117220649088267e-07,
				-1.409285204090338e-07,
				0.7071067690849304,
				0.7071067690849304
			],
			"scale":[
				0.9999999403953552,
				1,
				0.9999998807907104
			],
			"translation":[
				-0.12951485812664032,
				-0.2277379333972931,
				-7.450580596923828e-08
			]
		},
		{
			"children":[
				5,
				6
			],
			"name":"alien",
			"rotation":[
				1.2872396837337874e-07,
				1.2872396837337874e-07,
				-0.7071067690849304,
				0.7071067690849304
			],
			"translation":[
				0.2277379184961319,
				0.4000000059604645,
				0
			]
		},
		{
			"mesh":6,
			"name":"Cube.007",
			"rotation":[
				2.455678149715368e-08,
				1.4280787219433932e-08,
				-0.7071067690849304,
				0.7071067690849304
			],
			"scale":[
				1,
				0.9999999403953552,
				0.15084683895111084
			],
			"translation":[
				-0.5750489830970764,
				-0.22000007331371307,
				1.4901161193847656e-08
			]
		},
		{
			"mesh":7,
			"name":"wing_left",
			"rotation":[
				9.219623287037848e-09,
				1.6463612695361007e-08,
				-0.7071067690849304,
				0.7071067690849304
			],
			"scale":[
				1,
				0.9999999403953552,
				1
			],
			"translation":[
				0.12951482832431793,
				-0.2199999988079071,
				2.421438694000244e-08
			]
		},
		{
			"children":[
				8,
				9
			],
			"name":"Bone.002",
			"rotation":[
				-9.932404898549407e-10,
				9.932406008772432e-10,
				0.7071067690849304,
				0.7071067690849304
			],
			"translation":[
				-0.2199999988079071,
				0.4000000059604645,
				0
			]
		},
		{
			"mesh":8,
			"name":"body",
			"translation":[
				0,
				0.5,
				0
			]
		},
		{
			"mesh":9,
			"name":"feet",
			"translation":[
				0,
				0.6423361301422119,
				0
			]
		},
		{
			"children":[
				4,
				7,
				10,
				11,
				12
			],
			"name":"Body",
			"translation":[
				0,
				-0.30000001192092896,
				0
			]
		},
		{
			"children":[
				13
			],
			"name":"Armature"
		}
	],
	"animations":[
		{
			"channels":[
				{
					"sampler":0,
					"target":{
						"node":13,
						"path":"translation"
					}
				},
				{
					"sampler":1,
					"target":{
						"node":13,
						"path":"rotation"
					}
				},
				{
					"sampler":2,
					"target":{
						"node":13,
						"path":"scale"
					}
				},
				{
					"sampler":3,
					"target":{
						"node":4,
						"path":"translation"
					}
				},
				{
					"sampler":4,
					"target":{
						"node":4,
						"path":"rotation"
					}
				},
				{
					"sampler":5,
					"target":{
						"node":4,
						"path":"scale"
					}
				},
				{
					"sampler":6,
					"target":{
						"node":7,
						"path":"translation"
					}
				},
				{
					"sampler":7,
					"target":{
						"node":7,
						"path":"rotation"
					}
				},
				{
					"sampler":8,
					"target":{
						"node":7,
						"path":"scale"
					}
				},
				{
					"sampler":9,
					"target":{
						"node":10,
						"path":"translation"
					}
				},
				{
					"sampler":10,
					"target":{
						"node":10,
						"path":"rotation"
					}
				},
				{
					"sampler":11,
					"target":{
						"node":10,
						"path":"scale"
					}
				}
			],
			"name":"Fly",
			"samplers":[
				{
					"input":46,
					"interpolation":"LINEAR",
					"output":47
				},
				{
					"input":48,
					"interpolation":"STEP",
					"output":49
				},
				{
					"input":48,
					"interpolation":"STEP",
					"output":50
				},
				{
					"input":46,
					"interpolation":"LINEAR",
					"output":51
				},
				{
					"input":46,
					"interpolation":"LINEAR",
					"output":52
				},
				{
					"input":48,
					"interpolation":"STEP",
					"output":53
				},
				{
					"input":48,
					"interpolation":"LINEAR",
					"output":54
				},
				{
					"input":46,
					"interpolation":"LINEAR",
					"output":55
				},
				{
					"input":48,
					"interpolation":"STEP",
					"output":56
				},
				{
					"input":48,
					"interpolation":"LINEAR",
					"output":57
				},
				{
					"input":46,
					"interpolation":"LINEAR",
					"output":58
				},
				{
					"input":48,
					"interpolation":"STEP",
					"output":59
				}
			]
		}
	],
	"materials":[
		{
			"doubleSided":true,
			"name":"Green",
			"pbrMetallicRoughness":{
				"baseColorFactor":[
					0,
					0.30947643518447876,
					0.30947643518447876,
					1
				],
				"metallicFactor":0
			}
		},
		{
			"doubleSided":true,
			"name":"Red",
			"pbrMetallicRoughness":{
				"baseColorFactor":[
					0.7304738759994507,
					0.0630112737417221,
					0,
					1
				],
				"metallicFactor":0
			}
		},
		{
			"doubleSided":true,
			"name":"yellow",
			"pbrMetallicRoughness":{
				"baseColorFactor":[
					1,
					1,
					0,
					1
				],
				"metallicFactor":0
			}
		}
	],
	"meshes":[
		{
			"name":"Cube.004",
			"primitives":[
				{
					"attributes":{
						"POSITION":0,
						"NORMAL":1,
						"TEXCOORD_0":2,
						"TANGENT":3
					},
					"indices":4,
					"material":0
				}
			]
		},
		{
			"name":"Cube.006",
			"primitives":[
				{
					"attributes":{
						"POSITION":5,
						"NORMAL":6,
						"TEXCOORD_0":7
					},
					"indices":8,
					"material":0
				}
			]
		},
		{
			"name":"Cube.009",
			"primitives":[
				{
					"attributes":{
						"POSITION":9,
						"NORMAL":10,
						"TEXCOORD_0":11,
						"TANGENT":12
					},
					"indices":13,
					"material":1
				}
			]
		},
		{
			"name":"Cube.003",
			"primitives":[
				{
					"attributes":{
						"POSITION":14,
						"NORMAL":15,
						"TEXCOORD_0":16,
						"TANGENT":17
					},
					"indices":18,
					"material":0
				}
			]
		},
		{
			"name":"Cube.011",
			"primitives":[
				{
					"attributes":{
						"POSITION":19,
						"NORMAL":20,
						"TEXCOORD_0":21,
						"TANGENT":22
					},
					"indices":23,
					"material":1
				}
			]
		},
		{
			"name":"Cube.012",
			"primitives":[
				{
					"attributes":{
						"POSITION":24,
						"NORMAL":25,
						"TEXCOORD_0":26
					},
					"indices":27,
					"material":0
				}
			]
		},
		{
			"name":"Cube.010",
			"primitives":[
				{
					"attributes":{
						"POSITION":28,
						"NORMAL":29,
						"TEXCOORD_0":30,
						"TANGENT":31
					},
					"indices":32,
					"material":1
				}
			]
		},
		{
			"name":"Cube.007",
			"primitives":[
				{
					"attributes":{
						"POSITION":33,
						"NORMAL":34,
						"TEXCOORD_0":35
					},
					"indices":36,
					"material":0
				}
			]
		},
		{
			"name":"Cube.001",
			"primitives":[
				{
					"attributes":{
						"POSITION":37,
						"NORMAL":38,
						"TEXCOORD_0":39,
						"TANGENT":40
					},
					"indices":41,
					"material":2
				}
			]
		},
		{
			"name":"Cube.008",
			"primitives":[
				{
					"attributes":{
						"POSITION":42,
						"NORMAL":43,
						"TEXCOORD_0":44,
						"TANGENT":45
					},
					"indices":4,
					"material":1
				}
			]
		}
	],
	"skins":[
		{
			"inverseBindMatrices":60,
			"joints":[
				13,
				4,
				7,
				10
			],
			"name":"Armature"
		}
	],
	"accessors":[
		{
			"bufferView":0,
			"componentType":5126,
			"count":60,
			"max":[
				0.2087717056274414,
				0.7178206443786621,
				0.050745632499456406
			],
			"min":[
				-0.2087717056274414,
				0.5309835076332092,
				-0.0507456436753273
			],
			"type":"VEC3"
		},
		{
			"bufferView":1,
			"componentType":5126,
			"count":60,
			"type":"VEC3"
		},
		{
			"bufferView":2,
			"componentType":5126,
			"count":60,
			"type":"VEC2"
		},
		{
			"bufferView":3,
			"componentType":5126,
			"count":60,
			"type":"VEC4"
		},
		{
			"bufferView":4,
			"componentType":5123,
			"count":168,
			"type":"SCALAR"
		},
		{
			"bufferView":5,
			"componentType":5126,
			"count":72,
			"max":[
				0.5586793422698975,
				0.44196370244026184,
				0.053666479885578156
			],
			"min":[
				-0.5586793422698975,
				0.16154125332832336,
				-0.053666457533836365
			],
			"type":"VEC3"
		},
		{
			"bufferView":6,
			"componentType":5126,
			"count":72,
			"type":"VEC3"
		},
		{
			"bufferView":7,
			"componentType":5126,
			"count":72,
			"type":"VEC2"
		},
		{
			"bufferView":8,
			"componentType":5123,
			"count":120,
			"type":"SCALAR"
		},
		{
			"bufferView":9,
			"componentType":5126,
			"count":78,
			"max":[
				0.2737055718898773,
				0.45874258875846863,
				-0.12246330082416534
			],
			"min":[
				-0.27370554208755493,
				0.20549276471138,
				-0.3757131099700928
			],
			"type":"VEC3"
		},
		{
			"bufferView":10,
			"componentType":5126,
			"count":78,
			"type":"VEC3"
		},
		{
			"bufferView":11,
			"componentType":5126,
			"count":78,
			"type":"VEC2"
		},
		{
			"bufferView":12,
			"componentType":5126,
			"count":78,
			"type":"VEC4"
		},
		{
			"bufferView":13,
			"componentType":5123,
			"count":288,
			"type":"SCALAR"
		},
		{
			"bufferView":14,
			"componentType":5126,
			"count":65,
			"max":[
				0.4241347014904022,
				0.6053199172019958,
				0.4024156928062439
			],
			"min":[
				-0.4241347014904022,
				-0.036827847361564636,
				-0.6371352076530457
			],
			"type":"VEC3"
		},
		{
			"bufferView":15,
			"componentType":5126,
			"count":65,
			"type":"VEC3"
		},
		{
			"bufferView":16,
			"componentType":5126,
			"count":65,
			"type":"VEC2"
		},
		{
			"bufferView":17,
			"componentType":5126,
			"count":65,
			"type":"VEC4"
		},
		{
			"bufferView":18,
			"componentType":5123,
			"count":246,
			"type":"SCALAR"
		},
		{
			"bufferView":19,
			"componentType":5126,
			"count":90,
			"max":[
				0.7104290127754211,
				0.35894808173179626,
				0.11119247227907181
			],
			"min":[
				0.3926452398300171,
				-0.08030010759830475,
				-0.1095181405544281
			],
			"type":"VEC3"
		},
		{
			"bufferView":20,
			"componentType":5126,
			"count":90,
			"type":"VEC3"
		},
		{
			"bufferView":21,
			"componentType":5126,
			"count":90,
			"type":"VEC2"
		},
		{
			"bufferView":22,
			"componentType":5126,
			"count":90,
			"type":"VEC4"
		},
		{
			"bufferView":23,
			"componentType":5123,
			"count":336,
			"type":"SCALAR"
		},
		{
			"bufferView":24,
			"componentType":5126,
			"count":114,
			"max":[
				0.7980602979660034,
				0.0037736892700195312,
				0.004003019537776709
			],
			"min":[
				0.02728867530822754,
				-0.8814209699630737,
				-0.00400303490459919
			],
			"type":"VEC3"
		},
		{
			"bufferView":25,
			"componentType":5126,
			"count":114,
			"type":"VEC3"
		},
		{
			"bufferView":26,
			"componentType":5126,
			"count":114,
			"type":"VEC2"
		},
		{
			"bufferView":27,
			"componentType":5123,
			"count":216,
			"type":"SCALAR"
		},
		{
			"bufferView":28,
			"componentType":5126,
			"count":90,
			"max":[
				-0.3926452398300171,
				0.35894808173179626,
				0.11119247227907181
			],
			"min":[
				-0.7104290127754211,
				-0.08030010759830475,
				-0.1095181405544281
			],
			"type":"VEC3"
		},
		{
			"bufferView":29,
			"componentType":5126,
			"count":90,
			"type":"VEC3"
		},
		{
			"bufferView":30,
			"componentType":5126,
			"count":90,
			"type":"VEC2"
		},
		{
			"bufferView":31,
			"componentType":5126,
			"count":90,
			"type":"VEC4"
		},
		{
			"bufferView":32,
			"componentType":5123,
			"count":336,
			"type":"SCALAR"
		},
		{
			"bufferView":33,
			"componentType":5126,
			"count":114,
			"max":[
				-0.02728867530822754,
				0.0037736892700195312,
				0.004003019537776709
			],
			"min":[
				-0.7980602979660034,
				-0.8814209699630737,
				-0.00400303490459919
			],
			"type":"VEC3"
		},
		{
			"bufferView":34,
			"componentType":5126,
			"count":114,
			"type":"VEC3"
		},
		{
			"bufferView":35,
			"componentType":5126,
			"count":114,
			"type":"VEC2"
		},
		{
			"bufferView":36,
			"componentType":5123,
			"count":216,
			"type":"SCALAR"
		},
		{
			"bufferView":37,
			"componentType":5126,
			"count":62,
			"max":[
				0.24832212924957275,
				2.6434659957885742e-05,
				0.1961074024438858
			],
			"min":[
				-0.24832212924957275,
				-0.4193391501903534,
				-0.1961074024438858
			],
			"type":"VEC3"
		},
		{
			"bufferView":38,
			"componentType":5126,
			"count":62,
			"type":"VEC3"
		},
		{
			"bufferView":39,
			"componentType":5126,
			"count":62,
			"type":"VEC2"
		},
		{
			"bufferView":40,
			"componentType":5126,
			"count":62,
			"type":"VEC4"
		},
		{
			"bufferView":41,
			"componentType":5123,
			"count":240,
			"type":"SCALAR"
		},
		{
			"bufferView":42,
			"componentType":5126,
			"count":60,
			"max":[
				0.15746742486953735,
				-0.44839489459991455,
				0.059411823749542236
			],
			"min":[
				-0.15746742486953735,
				-0.6671395897865295,
				-0.05941186472773552
			],
			"type":"VEC3"
		},
		{
			"bufferView":43,
			"componentType":5126,
			"count":60,
			"type":"VEC3"
		},
		{
			"bufferView":44,
			"componentType":5126,
			"count":60,
			"type":"VEC2"
		},
		{
			"bufferView":45,
			"componentType":5126,
			"count":60,
			"type":"VEC4"
		},
		{
			"bufferView":46,
			"componentType":5126,
			"count":40,
			"max":[
				1.3333333333333333
			],
			"min":[
				0.03333333333333333
			],
			"type":"SCALAR"
		},
		{
			"bufferView":47,
			"componentType":5126,
			"count":40,
			"type":"VEC3"
		},
		{
			"bufferView":48,
			"componentType":5126,
			"count":2,
			"max":[
				1.3333333333333333
			],
			"min":[
				0.03333333333333333
			],
			"type":"SCALAR"
		},
		{
			"bufferView":49,
			"componentType":5126,
			"count":2,
			"type":"VEC4"
		},
		{
			"bufferView":50,
			"componentType":5126,
			"count":2,
			"type":"VEC3"
		},
		{
			"bufferView":51,
			"componentType":5126,
			"count":40,
			"type":"VEC3"
		},
		{
			"bufferView":52,
			"componentType":5126,
			"count":40,
			"type":"VEC4"
		},
		{
			"bufferView":53,
			"componentType":5126,
			"count":2,
			"type":"VEC3"
		},
		{
			"bufferView":54,
			"componentType":5126,
			"count":2,
			"type":"VEC3"
		},
		{
			"bufferView":55,
			"componentType":5126,
			"count":40,
			"type":"VEC4"
		},
		{
			"bufferView":56,
			"componentType":5126,
			"count":2,
			"type":"VEC3"
		},
		{
			"bufferView":57,
			"componentType":5126,
			"count":2,
			"type":"VEC3"
		},
		{
			"bufferView":58,
			"componentType":5126,
			"count":40,
			"type":"VEC4"
		},
		{
			"bufferView":59,
			"componentType":5126,
			"count":2,
			"type":"VEC3"
		},
		{
			"bufferView":60,
			"componentType":5126,
			"count":4,
			"type":"MAT4"
		}
	],
	"bufferViews":[
		{
			"buffer":0,
			"byteLength":720,
			"byteOffset":0,
			"target":34962
		},
		{
			"buffer":0,
			"byteLength":720,
			"byteOffset":720,
			"target":34962
		},
		{
			"buffer":0,
			"byteLength":480,
			"byteOffset":1440,
			"target":34962
		},
		{
			"buffer":0,
			"byteLength":960,
			"byteOffset":1920,
			"target":34962
		},
		{
			"buffer":0,
			"byteLength":336,
			"byteOffset":2880,
			"target":34963
		},
		{
			"buffer":0,
			"byteLength":864,
			"byteOffset":3216,
			"target":34962
		},
		{
			"buffer":0,
			"byteLength":864,
			"byteOffset":4080,
			"target":34962
		},
		{
			"buffer":0,
			"byteLength":576,
			"byteOffset":4944,
			"target":34962
		},
		{
			"buffer":0,
			"byteLength":240,
			"byteOffset":5520,
			"target":34963
		},
		{
			"buffer":0,
			"byteLength":936,
			"byteOffset":5760,
			"target":34962
		},
		{
			"buffer":0,
			"byteLength":936,
			"byteOffset":6696,
			"target":34962
		},
		{
			"buffer":0,
			"byteLength":624,
			"byteOffset":7632,
			"target":34962
		},
		{
			"buffer":0,
			"byteLength":1248,
			"byteOffset":8256,
			"target":34962
		},
		{
			"buffer":0,
			"byteLength":576,
			"byteOffset":9504,
			"target":34963
		},
		{
			"buffer":0,
			"byteLength":780,
			"byteOffset":10080,
			"target":34962
		},
		{
			"buffer":0,
			"byteLength":780,
			"byteOffset":10860,
			"target":34962
		},
		{
			"buffer":0,
			"byteLength":520,
			"byteOffset":11640,
			"target":34962
		},
		{
			"buffer":0,
			"byteLength":1040,
			"byteOffset":12160,
			"target":34962
		},
		{
			"buffer":0,
			"byteLength":492,
			"byteOffset":13200,
			"target":34963
		},
		{
			"buffer":0,
			"byteLength":1080,
			"byteOffset":13692,
			"target":34962
		},
		{
			"buffer":0,
			"byteLength":1080,
			"byteOffset":14772,
			"target":34962
		},
		{
			"buffer":0,
			"byteLength":720,
			"byteOffset":15852,
			"target":34962
		},
		{
			"buffer":0,
			"byteLength":1440,
			"byteOffset":16572,
			"target":34962
		},
		{
			"buffer":0,
			"byteLength":672,
			"byteOffset":18012,
			"target":34963
		},
		{
			"buffer":0,
			"byteLength":1368,
			"byteOffset":18684,
			"target":34962
		},
		{
			"buffer":0,
			"byteLength":1368,
			"byteOffset":20052,
			"target":34962
		},
		{
			"buffer":0,
			"byteLength":912,
			"byteOffset":21420,
			"target":34962
		},
		{
			"buffer":0,
			"byteLength":432,
			"byteOffset":22332,
			"target":34963
		},
		{
			"buffer":0,
			"byteLength":1080,
			"byteOffset":22764,
			"target":34962
		},
		{
			"buffer":0,
			"byteLength":1080,
			"byteOffset":23844,
			"target":34962
		},
		{
			"buffer":0,
			"byteLength":720,
			"byteOffset":24924,
			"target":34962
		},
		{
			"buffer":0,
			"byteLength":1440,
			"byteOffset":25644,
			"target":34962
		},
		{
			"buffer":0,
			"byteLength":672,
			"byteOffset":27084,
			"target":34963
		},
		{
			"buffer":0,
			"byteLength":1368,
			"byteOffset":27756,
			"target":34962
		},
		{
			"buffer":0,
			"byteLength":1368,
			"byteOffset":29124,
			"target":34962
		},
		{
			"buffer":0,
			"byteLength":912,
			"byteOffset":30492,
			"target":34962
		},
		{
			"buffer":0,
			"byteLength":432,
			"byteOffset":31404,
			"target":34963
		},
		{
			"buffer":0,
			"byteLength":744,
			"byteOffset":31836,
			"target":34962
		},
		{
			"buffer":0,
			"byteLength":744,
			"byteOffset":32580,
			"target":34962
		},
		{
			"buffer":0,
			"byteLength":496,
			"byteOffset":33324,
			"target":34962
		},
		{
			"buffer":0,
			"byteLength":992,
			"byteOffset":33820,
			"target":34962
		},
		{
			"buffer":0,
			"byteLength":480,
			"byteOffset":34812,
			"target":34963
		},
		{
			"buffer":0,
			"byteLength":720,
			"byteOffset":35292,
			"target":34962
		},
		{
			"buffer":0,
			"byteLength":720,
			"byteOffset":36012,
			"target":34962
		},
		{
			"buffer":0,
			"byteLength":480,
			"byteOffset":36732,
			"target":34962
		},
		{
			"buffer":0,
			"byteLength":960,
			"byteOffset":37212,
			"target":34962
		},
		{
			"buffer":0,
			"byteLength":160,
			"byteOffset":38172
		},
		{
			"buffer":0,
			"byteLength":480,
			"byteOffset":38332
		},
		{
			"buffer":0,
			"byteLength":8,
			"byteOffset":38812
		},
		{
			"buffer":0,
			"byteLength":32,
			"byteOffset":38820
		},
		{
			"buffer":0,
			"byteLength":24,
			"byteOffset":38852
		},
		{
			"buffer":0,
			"byteLength":480,
			"byteOffset":38876
		},
		{
			"buffer":0,
			"byteLength":640,
			"byteOffset":39356
		},
		{
			"buffer":0,
			"byteLength":24,
			"byteOffset":39996
		},
		{
			"buffer":0,
			"byteLength":24,
			"byteOffset":40020
		},
		{
			"buffer":0,
			"byteLength":640,
			"byteOffset":40044
		},
		{
			"buffer":0,
			"byteLength":24,
			"byteOffset":40684
		},
		{
			"buffer":0,
			"byteLength":24,
			"byteOffset":40708
		},
		{
			"buffer":0,
			"byteLength":640,
			"byteOffset":40732
		},
		{
			"buffer":0,
			"byteLength":24,
			"byteOffset":41372
		},
		{
			"buffer":0,
			"byteLength":256,
			"byteOffset":41396
		}
	],
	"buffers":[
		{
			"byteLength":41652,
			"uri":"green-alien-117ca3fa8edaa7af1a392eb6d0ee416c.bin"
		}
	]
}
