{
	"asset":{
		"generator":"Khronos glTF Blender I/O v4.2.69",
		"version":"2.0"
	},
	"scene":0,
	"scenes":[
		{
			"name":"Scene",
			"nodes":[
				10
			]
		}
	],
	"nodes":[
		{
			"mesh":0,
			"name":"Cube.001",
			"rotation":[
				8.994417655117104e-09,
				0,
				0,
				1
			],
			"scale":[
				0.2601027190685272,
				0.18459191918373108,
				0.2358308732509613
			],
			"translation":[
				0,
				0.12824124097824097,
				-1.862645149230957e-09
			]
		},
		{
			"mesh":1,
			"name":"Cube.003",
			"translation":[
				0,
				-0.27072873711586,
				-1.862645149230957e-09
			]
		},
		{
			"mesh":2,
			"name":"Cube.004",
			"scale":[
				0.10045046359300613,
				0.10045046359300613,
				0.10045046359300613
			],
			"translation":[
				-0.09490571916103363,
				0.19779643416404724,
				-0.23221620917320251
			]
		},
		{
			"children":[
				0,
				1,
				2
			],
			"name":"Body.001",
			"translation":[
				0,
				0.5,
				0
			]
		},
		{
			"mesh":3,
			"name":"Cube.005",
			"rotation":[
				-1.2117220649088267e-07,
				-1.409285204090338e-07,
				0.7071067690849304,
				0.7071067690849304
			],
			"scale":[
				0.9999999403953552,
				1,
				0.9999998807907104
			],
			"translation":[
				0.09999997913837433,
				-0.2277379035949707,
				1.6298143279414035e-08
			]
		},
		{
			"children":[
				4
			],
			"name":"Bone",
			"rotation":[
				1.2872396837337874e-07,
				1.2872396837337874e-07,
				-0.7071067690849304,
				0.7071067690849304
			],
			"translation":[
				0.2277379184961319,
				0.4000000059604645,
				0
			]
		},
		{
			"mesh":4,
			"name":"Cube.002",
			"rotation":[
				9.219623287037848e-09,
				1.6463612695361007e-08,
				-0.7071067690849304,
				0.7071067690849304
			],
			"scale":[
				1,
				0.9999999403953552,
				1
			],
			"translation":[
				-0.09999997913837433,
				-0.2200000286102295,
				2.514570951461792e-08
			]
		},
		{
			"children":[
				6
			],
			"name":"Bone.002",
			"rotation":[
				-9.932404898549407e-10,
				9.932406008772432e-10,
				0.7071067690849304,
				0.7071067690849304
			],
			"translation":[
				-0.2199999988079071,
				0.4000000059604645,
				0
			]
		},
		{
			"mesh":5,
			"name":"Cube",
			"scale":[
				0.2637549638748169,
				0.25828030705451965,
				0.2637549638748169
			],
			"translation":[
				0,
				0.2707287669181824,
				0
			]
		},
		{
			"children":[
				3,
				5,
				7,
				8
			],
			"name":"Body",
			"translation":[
				0,
				-0.30000001192092896,
				0
			]
		},
		{
			"children":[
				9
			],
			"name":"Armature"
		}
	],
	"animations":[
		{
			"channels":[
				{
					"sampler":0,
					"target":{
						"node":9,
						"path":"translation"
					}
				},
				{
					"sampler":1,
					"target":{
						"node":9,
						"path":"rotation"
					}
				},
				{
					"sampler":2,
					"target":{
						"node":9,
						"path":"scale"
					}
				},
				{
					"sampler":3,
					"target":{
						"node":3,
						"path":"translation"
					}
				},
				{
					"sampler":4,
					"target":{
						"node":3,
						"path":"rotation"
					}
				},
				{
					"sampler":5,
					"target":{
						"node":3,
						"path":"scale"
					}
				},
				{
					"sampler":6,
					"target":{
						"node":5,
						"path":"translation"
					}
				},
				{
					"sampler":7,
					"target":{
						"node":5,
						"path":"rotation"
					}
				},
				{
					"sampler":8,
					"target":{
						"node":5,
						"path":"scale"
					}
				},
				{
					"sampler":9,
					"target":{
						"node":7,
						"path":"translation"
					}
				},
				{
					"sampler":10,
					"target":{
						"node":7,
						"path":"rotation"
					}
				},
				{
					"sampler":11,
					"target":{
						"node":7,
						"path":"scale"
					}
				}
			],
			"name":"Fly",
			"samplers":[
				{
					"input":33,
					"interpolation":"LINEAR",
					"output":34
				},
				{
					"input":35,
					"interpolation":"STEP",
					"output":36
				},
				{
					"input":35,
					"interpolation":"STEP",
					"output":37
				},
				{
					"input":33,
					"interpolation":"LINEAR",
					"output":38
				},
				{
					"input":33,
					"interpolation":"LINEAR",
					"output":39
				},
				{
					"input":35,
					"interpolation":"STEP",
					"output":40
				},
				{
					"input":35,
					"interpolation":"LINEAR",
					"output":41
				},
				{
					"input":33,
					"interpolation":"LINEAR",
					"output":42
				},
				{
					"input":35,
					"interpolation":"STEP",
					"output":43
				},
				{
					"input":35,
					"interpolation":"LINEAR",
					"output":44
				},
				{
					"input":33,
					"interpolation":"LINEAR",
					"output":45
				},
				{
					"input":35,
					"interpolation":"STEP",
					"output":46
				}
			]
		}
	],
	"materials":[
		{
			"doubleSided":true,
			"name":"white",
			"pbrMetallicRoughness":{
				"baseColorFactor":[
					0.7304738759994507,
					0.7304738759994507,
					0.7304738759994507,
					1
				],
				"metallicFactor":0
			}
		},
		{
			"doubleSided":true,
			"name":"blue",
			"pbrMetallicRoughness":{
				"baseColorFactor":[
					0,
					0.12744010984897614,
					0.672457218170166,
					1
				],
				"metallicFactor":0
			}
		},
		{
			"doubleSided":true,
			"name":"Red",
			"pbrMetallicRoughness":{
				"baseColorFactor":[
					1,
					0,
					0,
					1
				],
				"metallicFactor":0
			}
		}
	],
	"meshes":[
		{
			"name":"head",
			"primitives":[
				{
					"attributes":{
						"POSITION":0,
						"NORMAL":1,
						"TEXCOORD_0":2,
						"TANGENT":3
					},
					"indices":4,
					"material":0
				}
			]
		},
		{
			"name":"ears",
			"primitives":[
				{
					"attributes":{
						"POSITION":5,
						"NORMAL":6,
						"TEXCOORD_0":7,
						"TANGENT":8
					},
					"indices":9,
					"material":1
				}
			]
		},
		{
			"name":"eyes",
			"primitives":[
				{
					"attributes":{
						"POSITION":10,
						"NORMAL":11,
						"TEXCOORD_0":12,
						"TANGENT":13
					},
					"indices":14,
					"material":2
				}
			]
		},
		{
			"name":"wing_right",
			"primitives":[
				{
					"attributes":{
						"POSITION":15,
						"NORMAL":16,
						"TEXCOORD_0":17
					},
					"indices":18,
					"material":2
				}
			]
		},
		{
			"name":"wing_left",
			"primitives":[
				{
					"attributes":{
						"POSITION":19,
						"NORMAL":20,
						"TEXCOORD_0":21
					},
					"indices":22,
					"material":2
				}
			]
		},
		{
			"name":"body",
			"primitives":[
				{
					"attributes":{
						"POSITION":23,
						"NORMAL":24,
						"TEXCOORD_0":25,
						"TANGENT":26
					},
					"indices":27,
					"material":0
				},
				{
					"attributes":{
						"POSITION":28,
						"NORMAL":29,
						"TEXCOORD_0":30,
						"TANGENT":31
					},
					"indices":32,
					"material":1
				}
			]
		}
	],
	"skins":[
		{
			"inverseBindMatrices":47,
			"joints":[
				9,
				3,
				5,
				7
			],
			"name":"Armature"
		}
	],
	"accessors":[
		{
			"bufferView":0,
			"componentType":5126,
			"count":75,
			"max":[
				0.9855042695999146,
				0.9275432825088501,
				1.1197021007537842
			],
			"min":[
				-0.9855042099952698,
				-0.9224902391433716,
				-1.2053916454315186
			],
			"type":"VEC3"
		},
		{
			"bufferView":1,
			"componentType":5126,
			"count":75,
			"type":"VEC3"
		},
		{
			"bufferView":2,
			"componentType":5126,
			"count":75,
			"type":"VEC2"
		},
		{
			"bufferView":3,
			"componentType":5126,
			"count":75,
			"type":"VEC4"
		},
		{
			"bufferView":4,
			"componentType":5123,
			"count":336,
			"type":"SCALAR"
		},
		{
			"bufferView":5,
			"componentType":5126,
			"count":114,
			"max":[
				0.16279059648513794,
				0.6354647278785706,
				0.053749930113554
			],
			"min":[
				-0.16279059648513794,
				0.44155484437942505,
				-0.053749941289424896
			],
			"type":"VEC3"
		},
		{
			"bufferView":6,
			"componentType":5126,
			"count":114,
			"type":"VEC3"
		},
		{
			"bufferView":7,
			"componentType":5126,
			"count":114,
			"type":"VEC2"
		},
		{
			"bufferView":8,
			"componentType":5126,
			"count":114,
			"type":"VEC4"
		},
		{
			"bufferView":9,
			"componentType":5123,
			"count":480,
			"type":"SCALAR"
		},
		{
			"bufferView":10,
			"componentType":5126,
			"count":78,
			"max":[
				2.7291085720062256,
				0.8395065069198608,
				0.8395062685012817
			],
			"min":[
				-0.8395062685012817,
				-0.8395062685012817,
				-0.8395065069198608
			],
			"type":"VEC3"
		},
		{
			"bufferView":11,
			"componentType":5126,
			"count":78,
			"type":"VEC3"
		},
		{
			"bufferView":12,
			"componentType":5126,
			"count":78,
			"type":"VEC2"
		},
		{
			"bufferView":13,
			"componentType":5126,
			"count":78,
			"type":"VEC4"
		},
		{
			"bufferView":14,
			"componentType":5123,
			"count":288,
			"type":"SCALAR"
		},
		{
			"bufferView":15,
			"componentType":5126,
			"count":191,
			"max":[
				0.7357169985771179,
				0.5481671690940857,
				0.011701184324920177
			],
			"min":[
				0.18536043167114258,
				-0.3035772740840912,
				-0.011700950562953949
			],
			"type":"VEC3"
		},
		{
			"bufferView":16,
			"componentType":5126,
			"count":191,
			"type":"VEC3"
		},
		{
			"bufferView":17,
			"componentType":5126,
			"count":191,
			"type":"VEC2"
		},
		{
			"bufferView":18,
			"componentType":5123,
			"count":408,
			"type":"SCALAR"
		},
		{
			"bufferView":19,
			"componentType":5126,
			"count":214,
			"max":[
				-0.038850896060466766,
				0.5481672286987305,
				0.011701184324920177
			],
			"min":[
				-0.7357169985771179,
				-0.3035773038864136,
				-0.011700950562953949
			],
			"type":"VEC3"
		},
		{
			"bufferView":20,
			"componentType":5126,
			"count":214,
			"type":"VEC3"
		},
		{
			"bufferView":21,
			"componentType":5126,
			"count":214,
			"type":"VEC2"
		},
		{
			"bufferView":22,
			"componentType":5123,
			"count":456,
			"type":"SCALAR"
		},
		{
			"bufferView":23,
			"componentType":5126,
			"count":51,
			"max":[
				0.9166666269302368,
				0.8679994940757751,
				0.9166666865348816
			],
			"min":[
				-0.9166666269302368,
				-0.36750802397727966,
				-0.9166666269302368
			],
			"type":"VEC3"
		},
		{
			"bufferView":24,
			"componentType":5126,
			"count":51,
			"type":"VEC3"
		},
		{
			"bufferView":25,
			"componentType":5126,
			"count":51,
			"type":"VEC2"
		},
		{
			"bufferView":26,
			"componentType":5126,
			"count":51,
			"type":"VEC4"
		},
		{
			"bufferView":27,
			"componentType":5123,
			"count":168,
			"type":"SCALAR"
		},
		{
			"bufferView":28,
			"componentType":5126,
			"count":51,
			"max":[
				0.9166666865348816,
				0.30814653635025024,
				0.9166666865348816
			],
			"min":[
				-0.9166666269302368,
				-0.6648330688476562,
				-0.9166666865348816
			],
			"type":"VEC3"
		},
		{
			"bufferView":29,
			"componentType":5126,
			"count":51,
			"type":"VEC3"
		},
		{
			"bufferView":30,
			"componentType":5126,
			"count":51,
			"type":"VEC2"
		},
		{
			"bufferView":31,
			"componentType":5126,
			"count":51,
			"type":"VEC4"
		},
		{
			"bufferView":32,
			"componentType":5123,
			"count":168,
			"type":"SCALAR"
		},
		{
			"bufferView":33,
			"componentType":5126,
			"count":40,
			"max":[
				1.3333333333333333
			],
			"min":[
				0.03333333333333333
			],
			"type":"SCALAR"
		},
		{
			"bufferView":34,
			"componentType":5126,
			"count":40,
			"type":"VEC3"
		},
		{
			"bufferView":35,
			"componentType":5126,
			"count":2,
			"max":[
				1.3333333333333333
			],
			"min":[
				0.03333333333333333
			],
			"type":"SCALAR"
		},
		{
			"bufferView":36,
			"componentType":5126,
			"count":2,
			"type":"VEC4"
		},
		{
			"bufferView":37,
			"componentType":5126,
			"count":2,
			"type":"VEC3"
		},
		{
			"bufferView":38,
			"componentType":5126,
			"count":40,
			"type":"VEC3"
		},
		{
			"bufferView":39,
			"componentType":5126,
			"count":40,
			"type":"VEC4"
		},
		{
			"bufferView":40,
			"componentType":5126,
			"count":2,
			"type":"VEC3"
		},
		{
			"bufferView":41,
			"componentType":5126,
			"count":2,
			"type":"VEC3"
		},
		{
			"bufferView":42,
			"componentType":5126,
			"count":40,
			"type":"VEC4"
		},
		{
			"bufferView":43,
			"componentType":5126,
			"count":2,
			"type":"VEC3"
		},
		{
			"bufferView":44,
			"componentType":5126,
			"count":2,
			"type":"VEC3"
		},
		{
			"bufferView":45,
			"componentType":5126,
			"count":40,
			"type":"VEC4"
		},
		{
			"bufferView":46,
			"componentType":5126,
			"count":2,
			"type":"VEC3"
		},
		{
			"bufferView":47,
			"componentType":5126,
			"count":4,
			"type":"MAT4"
		}
	],
	"bufferViews":[
		{
			"buffer":0,
			"byteLength":900,
			"byteOffset":0,
			"target":34962
		},
		{
			"buffer":0,
			"byteLength":900,
			"byteOffset":900,
			"target":34962
		},
		{
			"buffer":0,
			"byteLength":600,
			"byteOffset":1800,
			"target":34962
		},
		{
			"buffer":0,
			"byteLength":1200,
			"byteOffset":2400,
			"target":34962
		},
		{
			"buffer":0,
			"byteLength":672,
			"byteOffset":3600,
			"target":34963
		},
		{
			"buffer":0,
			"byteLength":1368,
			"byteOffset":4272,
			"target":34962
		},
		{
			"buffer":0,
			"byteLength":1368,
			"byteOffset":5640,
			"target":34962
		},
		{
			"buffer":0,
			"byteLength":912,
			"byteOffset":7008,
			"target":34962
		},
		{
			"buffer":0,
			"byteLength":1824,
			"byteOffset":7920,
			"target":34962
		},
		{
			"buffer":0,
			"byteLength":960,
			"byteOffset":9744,
			"target":34963
		},
		{
			"buffer":0,
			"byteLength":936,
			"byteOffset":10704,
			"target":34962
		},
		{
			"buffer":0,
			"byteLength":936,
			"byteOffset":11640,
			"target":34962
		},
		{
			"buffer":0,
			"byteLength":624,
			"byteOffset":12576,
			"target":34962
		},
		{
			"buffer":0,
			"byteLength":1248,
			"byteOffset":13200,
			"target":34962
		},
		{
			"buffer":0,
			"byteLength":576,
			"byteOffset":14448,
			"target":34963
		},
		{
			"buffer":0,
			"byteLength":2292,
			"byteOffset":15024,
			"target":34962
		},
		{
			"buffer":0,
			"byteLength":2292,
			"byteOffset":17316,
			"target":34962
		},
		{
			"buffer":0,
			"byteLength":1528,
			"byteOffset":19608,
			"target":34962
		},
		{
			"buffer":0,
			"byteLength":816,
			"byteOffset":21136,
			"target":34963
		},
		{
			"buffer":0,
			"byteLength":2568,
			"byteOffset":21952,
			"target":34962
		},
		{
			"buffer":0,
			"byteLength":2568,
			"byteOffset":24520,
			"target":34962
		},
		{
			"buffer":0,
			"byteLength":1712,
			"byteOffset":27088,
			"target":34962
		},
		{
			"buffer":0,
			"byteLength":912,
			"byteOffset":28800,
			"target":34963
		},
		{
			"buffer":0,
			"byteLength":612,
			"byteOffset":29712,
			"target":34962
		},
		{
			"buffer":0,
			"byteLength":612,
			"byteOffset":30324,
			"target":34962
		},
		{
			"buffer":0,
			"byteLength":408,
			"byteOffset":30936,
			"target":34962
		},
		{
			"buffer":0,
			"byteLength":816,
			"byteOffset":31344,
			"target":34962
		},
		{
			"buffer":0,
			"byteLength":336,
			"byteOffset":32160,
			"target":34963
		},
		{
			"buffer":0,
			"byteLength":612,
			"byteOffset":32496,
			"target":34962
		},
		{
			"buffer":0,
			"byteLength":612,
			"byteOffset":33108,
			"target":34962
		},
		{
			"buffer":0,
			"byteLength":408,
			"byteOffset":33720,
			"target":34962
		},
		{
			"buffer":0,
			"byteLength":816,
			"byteOffset":34128,
			"target":34962
		},
		{
			"buffer":0,
			"byteLength":336,
			"byteOffset":34944,
			"target":34963
		},
		{
			"buffer":0,
			"byteLength":160,
			"byteOffset":35280
		},
		{
			"buffer":0,
			"byteLength":480,
			"byteOffset":35440
		},
		{
			"buffer":0,
			"byteLength":8,
			"byteOffset":35920
		},
		{
			"buffer":0,
			"byteLength":32,
			"byteOffset":35928
		},
		{
			"buffer":0,
			"byteLength":24,
			"byteOffset":35960
		},
		{
			"buffer":0,
			"byteLength":480,
			"byteOffset":35984
		},
		{
			"buffer":0,
			"byteLength":640,
			"byteOffset":36464
		},
		{
			"buffer":0,
			"byteLength":24,
			"byteOffset":37104
		},
		{
			"buffer":0,
			"byteLength":24,
			"byteOffset":37128
		},
		{
			"buffer":0,
			"byteLength":640,
			"byteOffset":37152
		},
		{
			"buffer":0,
			"byteLength":24,
			"byteOffset":37792
		},
		{
			"buffer":0,
			"byteLength":24,
			"byteOffset":37816
		},
		{
			"buffer":0,
			"byteLength":640,
			"byteOffset":37840
		},
		{
			"buffer":0,
			"byteLength":24,
			"byteOffset":38480
		},
		{
			"buffer":0,
			"byteLength":256,
			"byteOffset":38504
		}
	],
	"buffers":[
		{
			"byteLength":38760,
			"uri":"red-alien-b17ad6f30e5ec8eae325ce3b6828a664.bin"
		}
	]
}
