{
	"asset":{
		"generator":"Khronos glTF Blender I/O v4.2.69",
		"version":"2.0"
	},
	"scene":0,
	"scenes":[
		{
			"name":"Scene",
			"nodes":[
				0
			]
		}
	],
	"nodes":[
		{
			"mesh":0,
			"name":"Spacechip",
			"scale":[
				0.11476141214370728,
				0.11476141214370728,
				0.11476141214370728
			]
		}
	],
	"materials":[
		{
			"doubleSided":true,
			"name":"blue",
			"pbrMetallicRoughness":{
				"baseColorFactor":[
					0.0012138064485043287,
					0.09989693760871887,
					0.4851408004760742,
					1
				],
				"metallicFactor":0
			}
		},
		{
			"doubleSided":true,
			"name":"red",
			"pbrMetallicRoughness":{
				"baseColorFactor":[
					1,
					0,
					0,
					1
				],
				"metallicFactor":0
			}
		}
	],
	"meshes":[
		{
			"name":"Cube.003",
			"primitives":[
				{
					"attributes":{
						"POSITION":0,
						"NORMAL":1,
						"TEXCOORD_0":2
					},
					"indices":3,
					"material":0
				},
				{
					"attributes":{
						"POSITION":4,
						"NORMAL":5,
						"TEXCOORD_0":6
					},
					"indices":7,
					"material":1
				}
			]
		}
	],
	"accessors":[
		{
			"bufferView":0,
			"componentType":5126,
			"count":480,
			"max":[
				11.937217712402344,
				3.0085792541503906,
				13.514110565185547
			],
			"min":[
				-11.937215805053711,
				-2.5890488624572754,
				-9.487232208251953
			],
			"type":"VEC3"
		},
		{
			"bufferView":1,
			"componentType":5126,
			"count":480,
			"type":"VEC3"
		},
		{
			"bufferView":2,
			"componentType":5126,
			"count":480,
			"type":"VEC2"
		},
		{
			"bufferView":3,
			"componentType":5123,
			"count":816,
			"type":"SCALAR"
		},
		{
			"bufferView":4,
			"componentType":5126,
			"count":238,
			"max":[
				11.937217712402344,
				2.1871612071990967,
				10.028618812561035
			],
			"min":[
				-11.937215805053711,
				-2.5890488624572754,
				-9.487232208251953
			],
			"type":"VEC3"
		},
		{
			"bufferView":5,
			"componentType":5126,
			"count":238,
			"type":"VEC3"
		},
		{
			"bufferView":6,
			"componentType":5126,
			"count":238,
			"type":"VEC2"
		},
		{
			"bufferView":7,
			"componentType":5123,
			"count":360,
			"type":"SCALAR"
		}
	],
	"bufferViews":[
		{
			"buffer":0,
			"byteLength":5760,
			"byteOffset":0,
			"target":34962
		},
		{
			"buffer":0,
			"byteLength":5760,
			"byteOffset":5760,
			"target":34962
		},
		{
			"buffer":0,
			"byteLength":3840,
			"byteOffset":11520,
			"target":34962
		},
		{
			"buffer":0,
			"byteLength":1632,
			"byteOffset":15360,
			"target":34963
		},
		{
			"buffer":0,
			"byteLength":2856,
			"byteOffset":16992,
			"target":34962
		},
		{
			"buffer":0,
			"byteLength":2856,
			"byteOffset":19848,
			"target":34962
		},
		{
			"buffer":0,
			"byteLength":1904,
			"byteOffset":22704,
			"target":34962
		},
		{
			"buffer":0,
			"byteLength":720,
			"byteOffset":24608,
			"target":34963
		}
	],
	"buffers":[
		{
			"byteLength":25328,
			"uri":"redSpacechip-3148ef5bc8d6254ebb89ea2b64e62dba.bin"
		}
	]
}
