{
	"asset":{
		"generator":"Khronos glTF Blender I/O v4.2.69",
		"version":"2.0"
	},
	"scene":0,
	"scenes":[
		{
			"name":"Scene",
			"nodes":[
				0
			]
		}
	],
	"nodes":[
		{
			"mesh":0,
			"name":"Spacechip",
			"scale":[
				0.11476141214370728,
				0.11476141214370728,
				0.11476141214370728
			]
		}
	],
	"materials":[
		{
			"doubleSided":true,
			"name":"blue",
			"pbrMetallicRoughness":{
				"baseColorFactor":[
					0.0012138064485043287,
					0.09989693760871887,
					0.4851408004760742,
					1
				],
				"metallicFactor":0
			}
		},
		{
			"doubleSided":true,
			"name":"red",
			"pbrMetallicRoughness":{
				"baseColorFactor":[
					1,
					0,
					0,
					1
				],
				"metallicFactor":0
			}
		},
		{
			"doubleSided":true,
			"name":"white",
			"pbrMetallicRoughness":{
				"baseColorFactor":[
					0.800000011920929,
					0.800000011920929,
					0.800000011920929,
					1
				],
				"metallicFactor":0
			}
		}
	],
	"meshes":[
		{
			"name":"Cube.003",
			"primitives":[
				{
					"attributes":{
						"POSITION":0,
						"NORMAL":1,
						"TEXCOORD_0":2
					},
					"indices":3,
					"material":0
				},
				{
					"attributes":{
						"POSITION":4,
						"NORMAL":5,
						"TEXCOORD_0":6
					},
					"indices":7,
					"material":1
				},
				{
					"attributes":{
						"POSITION":8,
						"NORMAL":9,
						"TEXCOORD_0":10
					},
					"indices":11,
					"material":2
				}
			]
		}
	],
	"accessors":[
		{
			"bufferView":0,
			"componentType":5126,
			"count":200,
			"max":[
				11.937217712402344,
				2.8788468837738037,
				1.1307549476623535
			],
			"min":[
				-11.937215805053711,
				-1.7115761041641235,
				-9.487232208251953
			],
			"type":"VEC3"
		},
		{
			"bufferView":1,
			"componentType":5126,
			"count":200,
			"type":"VEC3"
		},
		{
			"bufferView":2,
			"componentType":5126,
			"count":200,
			"type":"VEC2"
		},
		{
			"bufferView":3,
			"componentType":5123,
			"count":324,
			"type":"SCALAR"
		},
		{
			"bufferView":4,
			"componentType":5126,
			"count":284,
			"max":[
				10.832215309143066,
				3.0085792541503906,
				13.514110565185547
			],
			"min":[
				-10.8322172164917,
				-2.5890488624572754,
				-6.5970845222473145
			],
			"type":"VEC3"
		},
		{
			"bufferView":5,
			"componentType":5126,
			"count":284,
			"type":"VEC3"
		},
		{
			"bufferView":6,
			"componentType":5126,
			"count":284,
			"type":"VEC2"
		},
		{
			"bufferView":7,
			"componentType":5123,
			"count":504,
			"type":"SCALAR"
		},
		{
			"bufferView":8,
			"componentType":5126,
			"count":230,
			"max":[
				11.937217712402344,
				1.3490468263626099,
				10.028618812561035
			],
			"min":[
				-11.937215805053711,
				-1.7509315013885498,
				-9.487232208251953
			],
			"type":"VEC3"
		},
		{
			"bufferView":9,
			"componentType":5126,
			"count":230,
			"type":"VEC3"
		},
		{
			"bufferView":10,
			"componentType":5126,
			"count":230,
			"type":"VEC2"
		},
		{
			"bufferView":11,
			"componentType":5123,
			"count":348,
			"type":"SCALAR"
		}
	],
	"bufferViews":[
		{
			"buffer":0,
			"byteLength":2400,
			"byteOffset":0,
			"target":34962
		},
		{
			"buffer":0,
			"byteLength":2400,
			"byteOffset":2400,
			"target":34962
		},
		{
			"buffer":0,
			"byteLength":1600,
			"byteOffset":4800,
			"target":34962
		},
		{
			"buffer":0,
			"byteLength":648,
			"byteOffset":6400,
			"target":34963
		},
		{
			"buffer":0,
			"byteLength":3408,
			"byteOffset":7048,
			"target":34962
		},
		{
			"buffer":0,
			"byteLength":3408,
			"byteOffset":10456,
			"target":34962
		},
		{
			"buffer":0,
			"byteLength":2272,
			"byteOffset":13864,
			"target":34962
		},
		{
			"buffer":0,
			"byteLength":1008,
			"byteOffset":16136,
			"target":34963
		},
		{
			"buffer":0,
			"byteLength":2760,
			"byteOffset":17144,
			"target":34962
		},
		{
			"buffer":0,
			"byteLength":2760,
			"byteOffset":19904,
			"target":34962
		},
		{
			"buffer":0,
			"byteLength":1840,
			"byteOffset":22664,
			"target":34962
		},
		{
			"buffer":0,
			"byteLength":696,
			"byteOffset":24504,
			"target":34963
		}
	],
	"buffers":[
		{
			"byteLength":25200,
			"uri":"spacechip-b7fc29443e27c9f3f572bdc682dc40fd.bin"
		}
	]
}
