{
	"asset":{
		"generator":"Khronos glTF Blender I/O v4.2.69",
		"version":"2.0"
	},
	"scene":0,
	"scenes":[
		{
			"name":"Scene",
			"nodes":[
				8
			]
		}
	],
	"nodes":[
		{
			"mesh":1,
			"name":"Cube.004",
			"scale":[
				0.10045046359300613,
				0.10045046359300613,
				0.10045046359300613
			],
			"translation":[
				-0.09490571916103363,
				0.19779643416404724,
				-0.23221620917320251
			]
		},
		{
			"children":[
				0
			],
			"name":"Body.001",
			"translation":[
				0,
				0.5,
				0
			]
		},
		{
			"mesh":2,
			"name":"Cube.002",
			"rotation":[
				-1.1572091551670383e-07,
				-1.3792141828616877e-07,
				0.7071067690849304,
				0.7071067690849304
			],
			"scale":[
				0.2567107677459717,
				0.25671079754829407,
				0.016988668590784073
			],
			"translation":[
				0.25277411937713623,
				-0.6836351752281189,
				4.0978189730367376e-08
			]
		},
		{
			"children":[
				2
			],
			"name":"Bone",
			"rotation":[
				1.2872396837337874e-07,
				1.2872396837337874e-07,
				-0.7071067690849304,
				0.7071067690849304
			],
			"translation":[
				0.2277379184961319,
				0.4000000059604645,
				0
			]
		},
		{
			"mesh":3,
			"name":"Cube.001",
			"rotation":[
				2.422734013407535e-09,
				1.6674560399110305e-08,
				-0.7071067690849304,
				0.7071067690849304
			],
			"scale":[
				0.2567107677459717,
				0.2567107677459717,
				0.016988670453429222
			],
			"translation":[
				-0.25277411937713623,
				0.2358972728252411,
				3.259629011154175e-08
			]
		},
		{
			"children":[
				4
			],
			"name":"Bone.002",
			"rotation":[
				-9.932404898549407e-10,
				9.932406008772432e-10,
				0.7071067690849304,
				0.7071067690849304
			],
			"translation":[
				-0.2199999988079071,
				0.4000000059604645,
				0
			]
		},
		{
			"children":[
				1,
				3,
				5
			],
			"name":"Body",
			"translation":[
				0,
				-0.30000001192092896,
				0
			]
		},
		{
			"mesh":0,
			"name":"Cube",
			"skin":0
		},
		{
			"children":[
				7,
				6
			],
			"name":"Armature"
		}
	],
	"animations":[
		{
			"channels":[
				{
					"sampler":0,
					"target":{
						"node":6,
						"path":"translation"
					}
				},
				{
					"sampler":1,
					"target":{
						"node":6,
						"path":"rotation"
					}
				},
				{
					"sampler":2,
					"target":{
						"node":6,
						"path":"scale"
					}
				},
				{
					"sampler":3,
					"target":{
						"node":1,
						"path":"translation"
					}
				},
				{
					"sampler":4,
					"target":{
						"node":1,
						"path":"rotation"
					}
				},
				{
					"sampler":5,
					"target":{
						"node":1,
						"path":"scale"
					}
				},
				{
					"sampler":6,
					"target":{
						"node":3,
						"path":"translation"
					}
				},
				{
					"sampler":7,
					"target":{
						"node":3,
						"path":"rotation"
					}
				},
				{
					"sampler":8,
					"target":{
						"node":3,
						"path":"scale"
					}
				},
				{
					"sampler":9,
					"target":{
						"node":5,
						"path":"translation"
					}
				},
				{
					"sampler":10,
					"target":{
						"node":5,
						"path":"rotation"
					}
				},
				{
					"sampler":11,
					"target":{
						"node":5,
						"path":"scale"
					}
				}
			],
			"name":"Fly",
			"samplers":[
				{
					"input":28,
					"interpolation":"LINEAR",
					"output":29
				},
				{
					"input":30,
					"interpolation":"STEP",
					"output":31
				},
				{
					"input":30,
					"interpolation":"STEP",
					"output":32
				},
				{
					"input":28,
					"interpolation":"LINEAR",
					"output":33
				},
				{
					"input":28,
					"interpolation":"LINEAR",
					"output":34
				},
				{
					"input":30,
					"interpolation":"STEP",
					"output":35
				},
				{
					"input":30,
					"interpolation":"LINEAR",
					"output":36
				},
				{
					"input":28,
					"interpolation":"LINEAR",
					"output":37
				},
				{
					"input":30,
					"interpolation":"STEP",
					"output":38
				},
				{
					"input":30,
					"interpolation":"LINEAR",
					"output":39
				},
				{
					"input":28,
					"interpolation":"LINEAR",
					"output":40
				},
				{
					"input":30,
					"interpolation":"STEP",
					"output":41
				}
			]
		}
	],
	"materials":[
		{
			"doubleSided":true,
			"name":"yellow",
			"pbrMetallicRoughness":{
				"baseColorFactor":[
					1,
					1,
					0,
					1
				],
				"metallicFactor":0
			}
		},
		{
			"doubleSided":true,
			"name":"Red",
			"pbrMetallicRoughness":{
				"baseColorFactor":[
					1,
					0,
					0,
					1
				],
				"metallicFactor":0
			}
		},
		{
			"doubleSided":true,
			"name":"blue",
			"pbrMetallicRoughness":{
				"baseColorFactor":[
					0,
					0.12744010984897614,
					0.672457218170166,
					1
				],
				"metallicFactor":0
			}
		}
	],
	"meshes":[
		{
			"name":"body",
			"primitives":[
				{
					"attributes":{
						"POSITION":0,
						"NORMAL":1,
						"TEXCOORD_0":2,
						"TANGENT":3,
						"JOINTS_0":4,
						"WEIGHTS_0":5
					},
					"indices":6,
					"material":0
				},
				{
					"attributes":{
						"POSITION":7,
						"NORMAL":8,
						"TEXCOORD_0":9,
						"TANGENT":10,
						"JOINTS_0":11,
						"WEIGHTS_0":12
					},
					"indices":13,
					"material":1
				}
			]
		},
		{
			"name":"eyes",
			"primitives":[
				{
					"attributes":{
						"POSITION":15,
						"NORMAL":16,
						"TEXCOORD_0":17,
						"TANGENT":18
					},
					"indices":19,
					"material":1
				}
			]
		},
		{
			"name":"wing_left.001",
			"primitives":[
				{
					"attributes":{
						"POSITION":20,
						"NORMAL":21,
						"TEXCOORD_0":22
					},
					"indices":23,
					"material":2
				}
			]
		},
		{
			"name":"wing_left",
			"primitives":[
				{
					"attributes":{
						"POSITION":24,
						"NORMAL":25,
						"TEXCOORD_0":26
					},
					"indices":27,
					"material":2
				}
			]
		}
	],
	"skins":[
		{
			"inverseBindMatrices":14,
			"joints":[
				6,
				1,
				3,
				5
			],
			"name":"Armature"
		}
	],
	"accessors":[
		{
			"bufferView":0,
			"componentType":5126,
			"count":400,
			"max":[
				0.2635411322116852,
				0.5948414206504822,
				0.2635411322116852
			],
			"min":[
				-0.2635410726070404,
				-0.11252457648515701,
				-0.2635411322116852
			],
			"type":"VEC3"
		},
		{
			"bufferView":1,
			"componentType":5126,
			"count":400,
			"type":"VEC3"
		},
		{
			"bufferView":2,
			"componentType":5126,
			"count":400,
			"type":"VEC2"
		},
		{
			"bufferView":3,
			"componentType":5126,
			"count":400,
			"type":"VEC4"
		},
		{
			"bufferView":4,
			"componentType":5121,
			"count":400,
			"type":"VEC4"
		},
		{
			"bufferView":5,
			"componentType":5126,
			"count":400,
			"type":"VEC4"
		},
		{
			"bufferView":6,
			"componentType":5123,
			"count":600,
			"type":"SCALAR"
		},
		{
			"bufferView":7,
			"componentType":5126,
			"count":80,
			"max":[
				0.1878635436296463,
				0.12756526470184326,
				0.1878635585308075
			],
			"min":[
				-0.1878635436296463,
				-0.2851794362068176,
				-0.1878635436296463
			],
			"type":"VEC3"
		},
		{
			"bufferView":8,
			"componentType":5126,
			"count":80,
			"type":"VEC3"
		},
		{
			"bufferView":9,
			"componentType":5126,
			"count":80,
			"type":"VEC2"
		},
		{
			"bufferView":10,
			"componentType":5126,
			"count":80,
			"type":"VEC4"
		},
		{
			"bufferView":11,
			"componentType":5121,
			"count":80,
			"type":"VEC4"
		},
		{
			"bufferView":12,
			"componentType":5126,
			"count":80,
			"type":"VEC4"
		},
		{
			"bufferView":13,
			"componentType":5123,
			"count":120,
			"type":"SCALAR"
		},
		{
			"bufferView":14,
			"componentType":5126,
			"count":4,
			"type":"MAT4"
		},
		{
			"bufferView":15,
			"componentType":5126,
			"count":78,
			"max":[
				3.5109939575195312,
				1.2073785066604614,
				1.20737886428833
			],
			"min":[
				-1.621391773223877,
				-1.2073794603347778,
				-1.2073791027069092
			],
			"type":"VEC3"
		},
		{
			"bufferView":16,
			"componentType":5126,
			"count":78,
			"type":"VEC3"
		},
		{
			"bufferView":17,
			"componentType":5126,
			"count":78,
			"type":"VEC2"
		},
		{
			"bufferView":18,
			"componentType":5126,
			"count":78,
			"type":"VEC4"
		},
		{
			"bufferView":19,
			"componentType":5123,
			"count":288,
			"type":"SCALAR"
		},
		{
			"bufferView":20,
			"componentType":5126,
			"count":114,
			"max":[
				4.201793670654297,
				1.7456514835357666,
				1
			],
			"min":[
				2.273519515991211,
				-1.0168542861938477,
				-1.0000008344650269
			],
			"type":"VEC3"
		},
		{
			"bufferView":21,
			"componentType":5126,
			"count":114,
			"type":"VEC3"
		},
		{
			"bufferView":22,
			"componentType":5126,
			"count":114,
			"type":"VEC2"
		},
		{
			"bufferView":23,
			"componentType":5123,
			"count":216,
			"type":"SCALAR"
		},
		{
			"bufferView":24,
			"componentType":5126,
			"count":114,
			"max":[
				1.2783167362213135,
				1.7456514835357666,
				1
			],
			"min":[
				-0.6499572396278381,
				-1.0168544054031372,
				-1.0000008344650269
			],
			"type":"VEC3"
		},
		{
			"bufferView":25,
			"componentType":5126,
			"count":114,
			"type":"VEC3"
		},
		{
			"bufferView":26,
			"componentType":5126,
			"count":114,
			"type":"VEC2"
		},
		{
			"bufferView":27,
			"componentType":5123,
			"count":216,
			"type":"SCALAR"
		},
		{
			"bufferView":28,
			"componentType":5126,
			"count":40,
			"max":[
				1.3333333333333333
			],
			"min":[
				0.03333333333333333
			],
			"type":"SCALAR"
		},
		{
			"bufferView":29,
			"componentType":5126,
			"count":40,
			"type":"VEC3"
		},
		{
			"bufferView":30,
			"componentType":5126,
			"count":2,
			"max":[
				1.3333333333333333
			],
			"min":[
				0.03333333333333333
			],
			"type":"SCALAR"
		},
		{
			"bufferView":31,
			"componentType":5126,
			"count":2,
			"type":"VEC4"
		},
		{
			"bufferView":32,
			"componentType":5126,
			"count":2,
			"type":"VEC3"
		},
		{
			"bufferView":33,
			"componentType":5126,
			"count":40,
			"type":"VEC3"
		},
		{
			"bufferView":34,
			"componentType":5126,
			"count":40,
			"type":"VEC4"
		},
		{
			"bufferView":35,
			"componentType":5126,
			"count":2,
			"type":"VEC3"
		},
		{
			"bufferView":36,
			"componentType":5126,
			"count":2,
			"type":"VEC3"
		},
		{
			"bufferView":37,
			"componentType":5126,
			"count":40,
			"type":"VEC4"
		},
		{
			"bufferView":38,
			"componentType":5126,
			"count":2,
			"type":"VEC3"
		},
		{
			"bufferView":39,
			"componentType":5126,
			"count":2,
			"type":"VEC3"
		},
		{
			"bufferView":40,
			"componentType":5126,
			"count":40,
			"type":"VEC4"
		},
		{
			"bufferView":41,
			"componentType":5126,
			"count":2,
			"type":"VEC3"
		}
	],
	"bufferViews":[
		{
			"buffer":0,
			"byteLength":4800,
			"byteOffset":0,
			"target":34962
		},
		{
			"buffer":0,
			"byteLength":4800,
			"byteOffset":4800,
			"target":34962
		},
		{
			"buffer":0,
			"byteLength":3200,
			"byteOffset":9600,
			"target":34962
		},
		{
			"buffer":0,
			"byteLength":6400,
			"byteOffset":12800,
			"target":34962
		},
		{
			"buffer":0,
			"byteLength":1600,
			"byteOffset":19200,
			"target":34962
		},
		{
			"buffer":0,
			"byteLength":6400,
			"byteOffset":20800,
			"target":34962
		},
		{
			"buffer":0,
			"byteLength":1200,
			"byteOffset":27200,
			"target":34963
		},
		{
			"buffer":0,
			"byteLength":960,
			"byteOffset":28400,
			"target":34962
		},
		{
			"buffer":0,
			"byteLength":960,
			"byteOffset":29360,
			"target":34962
		},
		{
			"buffer":0,
			"byteLength":640,
			"byteOffset":30320,
			"target":34962
		},
		{
			"buffer":0,
			"byteLength":1280,
			"byteOffset":30960,
			"target":34962
		},
		{
			"buffer":0,
			"byteLength":320,
			"byteOffset":32240,
			"target":34962
		},
		{
			"buffer":0,
			"byteLength":1280,
			"byteOffset":32560,
			"target":34962
		},
		{
			"buffer":0,
			"byteLength":240,
			"byteOffset":33840,
			"target":34963
		},
		{
			"buffer":0,
			"byteLength":256,
			"byteOffset":34080
		},
		{
			"buffer":0,
			"byteLength":936,
			"byteOffset":34336,
			"target":34962
		},
		{
			"buffer":0,
			"byteLength":936,
			"byteOffset":35272,
			"target":34962
		},
		{
			"buffer":0,
			"byteLength":624,
			"byteOffset":36208,
			"target":34962
		},
		{
			"buffer":0,
			"byteLength":1248,
			"byteOffset":36832,
			"target":34962
		},
		{
			"buffer":0,
			"byteLength":576,
			"byteOffset":38080,
			"target":34963
		},
		{
			"buffer":0,
			"byteLength":1368,
			"byteOffset":38656,
			"target":34962
		},
		{
			"buffer":0,
			"byteLength":1368,
			"byteOffset":40024,
			"target":34962
		},
		{
			"buffer":0,
			"byteLength":912,
			"byteOffset":41392,
			"target":34962
		},
		{
			"buffer":0,
			"byteLength":432,
			"byteOffset":42304,
			"target":34963
		},
		{
			"buffer":0,
			"byteLength":1368,
			"byteOffset":42736,
			"target":34962
		},
		{
			"buffer":0,
			"byteLength":1368,
			"byteOffset":44104,
			"target":34962
		},
		{
			"buffer":0,
			"byteLength":912,
			"byteOffset":45472,
			"target":34962
		},
		{
			"buffer":0,
			"byteLength":432,
			"byteOffset":46384,
			"target":34963
		},
		{
			"buffer":0,
			"byteLength":160,
			"byteOffset":46816
		},
		{
			"buffer":0,
			"byteLength":480,
			"byteOffset":46976
		},
		{
			"buffer":0,
			"byteLength":8,
			"byteOffset":47456
		},
		{
			"buffer":0,
			"byteLength":32,
			"byteOffset":47464
		},
		{
			"buffer":0,
			"byteLength":24,
			"byteOffset":47496
		},
		{
			"buffer":0,
			"byteLength":480,
			"byteOffset":47520
		},
		{
			"buffer":0,
			"byteLength":640,
			"byteOffset":48000
		},
		{
			"buffer":0,
			"byteLength":24,
			"byteOffset":48640
		},
		{
			"buffer":0,
			"byteLength":24,
			"byteOffset":48664
		},
		{
			"buffer":0,
			"byteLength":640,
			"byteOffset":48688
		},
		{
			"buffer":0,
			"byteLength":24,
			"byteOffset":49328
		},
		{
			"buffer":0,
			"byteLength":24,
			"byteOffset":49352
		},
		{
			"buffer":0,
			"byteLength":640,
			"byteOffset":49376
		},
		{
			"buffer":0,
			"byteLength":24,
			"byteOffset":50016
		}
	],
	"buffers":[
		{
			"byteLength":50040,
			"uri":"yellow-alien-7ec99b406679e424021583e6dc02780f.bin"
		}
	]
}
